<svg version="1" xmlns="http://www.w3.org/2000/svg" width="918.667" height="918.667" viewBox="0 0 689.000000 689.000000"><path d="M332.8.5c-.2.2-3.9.5-8.3.9-13.4 1.1-34.1 4.4-45 7.3-3.3.8-6.4 1.6-7 1.7-9.5 2.2-30.8 9.6-43 15-8.5 3.8-27.3 13.4-31.7 16.2-2.1 1.3-4.2 2.4-4.8 2.4-.5 0-1 .4-1 1 0 .5-.5 1-1.1 1-1.3 0-17.6 11.2-27.9 19.3-11.6 9-28.6 25.1-39.3 37.2-28.3 32-47.7 65.7-61.7 107-3.5 10.2-9.6 34.5-10.6 42-.3 2.7-.8 5.3-1 5.6-.2.4-.6 4-1 8-.3 4.1-1 9.6-1.4 12.4-1 5.5-.6 53.6.4 60 .4 2.2 1.1 7.1 1.7 11 2.1 14.1 2.8 17.8 4.6 25 .8 3.3 1.7 6.9 1.9 8 .7 3.5 7.5 24.8 10.1 31.5 4.5 11.7 6.6 16.3 14 30.9l7.3 14.3-8.3 12.7c-4.5 6.9-10.5 16.1-13.2 20.3-4.3 6.7-5.4 7.8-8 7.9-1.6 0-4.1.2-5.5.4-1.4.1-6.5.5-11.5.9-26.8 1.9-32.7 2.5-33.1 2.9-1.2 1.2 28.9 44.6 39.1 56.2 8.5 9.7 8.4 9.6 10.5 7 .7-.8 1.1-3.5.8-6.5-.1-2.7 0-5 .3-5 .4 0 2.6 2.1 4.9 4.7 49.3 55.6 114.9 96.4 186.5 115.8 9.3 2.5 24.4 6 30.5 7 1.9.3 4.6.7 6 1 1.4.2 4.3.7 6.5 1 2.2.2 7.2.9 11 1.4 23.2 3.2 70.8 3.5 88.7.6 1.3-.2 4.8-.6 7.8-.9 6.5-.8 8.2-1 22.5-3.7 25.6-4.8 52.9-13 76-22.8 7.6-3.3 11.2-4.9 20.5-9.4 42.3-20.4 85.9-53.5 118-89.6l5.5-6.2-.2 5.8c-.1 4 .3 6.3 1.4 7.5 1.4 1.6 1.7 1.5 4-1 1.4-1.5 5.1-5.9 8.2-9.7 3.1-3.9 5.8-7.2 6.1-7.5 1.5-1.4 14.6-19.7 19.9-27.9 5.1-7.8 6.1-10 6.1-13.6 0-5.2.1-5.2-13.5-6-5.5-.4-11.6-.8-13.5-1-1.9-.2-7.3-.7-12-1.1-4.7-.3-9-1-9.6-1.5-.9-.8-15.9-23.5-18.9-28.7-.5-.9-1.2-1.9-1.5-2.2-.3-.3-1.8-2.4-3.3-4.7L614 458l2.5-4.2c3.4-5.8 12.7-24.8 16-32.8 8-18.9 16.7-49.7 18.8-66.5.3-2.2 1-7.6 1.6-12 .6-4.4 1.3-10.9 1.6-14.5.6-7 .7-43.6.1-48.5-.2-1.7-.7-6.4-1.1-10.5-.4-4.1-.9-8.4-1.1-9.5-.2-1-.6-3.7-.9-6-4.2-29.1-17.9-68.3-33.8-97-6.6-11.9-16.2-26.3-25.6-38.5-8.7-11.3-10.6-13.4-24.1-27-21.4-21.6-38.9-35.1-66-50.9-18.1-10.5-40.6-20.2-61.5-26.5-4.9-1.5-10.2-3.1-11.7-3.6-1.6-.5-2.8-.7-2.8-.5 0 .3-1.1 0-2.6-.5-1.4-.6-3.9-1.2-5.7-1.5-1.8-.3-4.8-1-6.7-1.5-2-.5-5.4-1.2-7.5-1.5-2.2-.3-4.9-.7-6-.9-1.1-.2-4.9-.7-8.5-1.1-3.6-.3-7.8-.9-9.5-1.2-2.9-.5-46.2-1.2-46.7-.8z"/></svg>