<?xml version="1.0" standalone="no"?>
<!DOCTYPE svg PUBLIC "-//W3C//DTD SVG 20010904//EN"
 "http://www.w3.org/TR/2001/REC-SVG-20010904/DTD/svg10.dtd">
<svg version="1.0" xmlns="http://www.w3.org/2000/svg"
 width="750.000000pt" height="689.000000pt" viewBox="0 0 750.000000 689.000000"
 preserveAspectRatio="xMidYMid meet">
<metadata>
Created by potrace 1.15, written by Peter Selinger 2001-2017
</metadata>
<g transform="translate(0.000000,689.000000) scale(0.100000,-0.100000)"
fill="#000000" stroke="none">
<path d="M3550 6699 c-682 -68 -1285 -353 -1765 -834 -410 -409 -675 -909
-789 -1490 -47 -237 -60 -601 -30 -855 98 -847 555 -1592 1269 -2067 364 -242
770 -391 1235 -455 140 -19 564 -16 713 5 774 109 1445 504 1923 1132 306 402
490 864 549 1380 17 150 20 515 5 650 -40 353 -129 652 -289 970 -424 840
-1208 1402 -2156 1546 -152 23 -516 33 -665 18z m521 -76 c40 -16 59 -47 59
-98 0 -35 0 -35 -45 -35 -40 0 -45 3 -45 23 0 41 -15 51 -83 55 -84 5 -107 -7
-107 -57 0 -21 6 -43 13 -49 6 -6 50 -16 97 -22 98 -13 144 -30 159 -58 16
-29 14 -126 -3 -167 -21 -50 -47 -60 -156 -59 -163 1 -207 25 -218 119 l-5 45
47 0 c42 0 46 -2 46 -25 0 -47 31 -65 115 -65 63 0 76 3 85 19 13 25 13 88 0
96 -6 4 -54 13 -107 21 -53 8 -108 20 -122 27 -35 16 -53 75 -45 139 9 63 38
98 90 109 52 10 180 0 225 -18z m359 -47 l145 -33 -2 -32 c0 -18 -4 -35 -6
-38 -3 -3 -50 4 -104 16 -54 12 -106 21 -114 21 -10 0 -19 -17 -27 -51 -7 -28
-10 -54 -7 -59 2 -4 19 -10 37 -14 18 -3 66 -13 105 -22 71 -16 73 -17 67 -42
-4 -15 -8 -30 -10 -33 -3 -6 -101 13 -200 37 -19 5 -22 -1 -34 -56 -8 -36 -9
-64 -4 -69 5 -5 56 -19 114 -31 58 -12 106 -23 107 -24 1 -1 -2 -19 -8 -40 -8
-28 -14 -36 -27 -32 -9 3 -80 19 -157 36 -77 17 -141 33 -143 35 -3 3 34 177
79 374 12 51 26 91 32 90 7 0 77 -15 157 -33z m-1149 -178 c18 -97 35 -182 39
-189 6 -9 33 -7 110 6 112 20 120 18 120 -36 0 -25 -3 -26 -150 -53 -83 -16
-153 -27 -155 -25 -8 9 -88 459 -83 465 11 10 72 22 80 15 3 -3 21 -86 39
-183z m-370 -113 c35 -102 68 -185 74 -185 5 0 54 16 107 35 l97 34 11 -35 c7
-20 8 -39 4 -44 -12 -10 -284 -104 -288 -99 -1 2 -36 99 -76 214 -40 116 -75
215 -77 222 -4 11 46 40 73 42 6 1 39 -82 75 -184z m2036 122 c4 -4 -34 -498
-39 -502 -3 -3 -22 2 -41 11 -34 16 -36 21 -39 68 l-3 50 -90 38 -89 38 -37
-36 -37 -36 -42 19 -43 18 167 192 166 192 63 -26 c34 -14 63 -26 64 -26z
m-2232 -184 c71 -127 89 -168 93 -208 4 -48 2 -53 -34 -87 -46 -45 -166 -107
-221 -115 -36 -5 -44 -2 -73 28 -18 19 -72 105 -120 191 l-88 157 34 21 c20
11 39 20 43 20 4 0 45 -67 90 -149 90 -163 108 -186 143 -178 47 13 133 72
136 95 2 14 -29 80 -82 175 -47 85 -86 158 -86 163 0 10 49 43 65 44 6 0 51
-71 100 -157z m2535 22 c6 -7 -31 -74 -95 -175 -57 -90 -102 -167 -100 -170 2
-4 43 -31 90 -60 47 -29 88 -56 89 -59 2 -3 -6 -20 -18 -38 l-22 -31 -129 82
c-72 46 -129 88 -127 95 1 7 57 100 124 206 l122 194 29 -17 c16 -9 32 -22 37
-27z m-2951 -326 l154 -180 -32 -32 -32 -32 -32 35 c-18 19 -49 55 -69 79
l-37 44 -57 -49 c-31 -27 -70 -60 -86 -74 l-28 -25 67 -79 67 -78 -33 -30
c-40 -36 -16 -56 -210 172 l-141 165 32 27 c18 15 35 27 38 28 3 0 32 -32 64
-70 33 -39 62 -70 65 -70 3 0 43 32 89 71 l83 71 -54 62 c-74 84 -73 83 -41
117 15 16 30 29 33 28 3 0 75 -81 160 -180z m1841 156 c535 -81 1030 -353
1378 -760 285 -333 471 -748 526 -1173 21 -161 21 -434 0 -594 -70 -546 -346
-1053 -768 -1415 -696 -596 -1680 -711 -2501 -290 -539 277 -954 779 -1125
1363 -69 237 -85 353 -84 639 0 266 9 347 59 545 40 159 84 278 160 435 279
579 784 1007 1396 1183 153 45 265 65 464 86 80 8 393 -4 495 -19z m1471 -86
c136 -97 177 -172 128 -240 -25 -35 -30 -36 -65 -5 -26 22 -27 25 -14 56 14
33 14 33 -39 82 -29 26 -61 48 -72 48 -22 0 -69 -45 -69 -66 0 -8 33 -50 74
-94 41 -44 77 -92 81 -107 8 -35 -37 -108 -92 -147 -39 -27 -45 -28 -80 -18
-51 15 -167 113 -199 167 -29 50 -27 70 13 123 l24 32 35 -26 c33 -25 34 -28
19 -50 -24 -37 -18 -59 29 -102 67 -61 83 -68 115 -44 14 10 30 31 35 45 9 24
4 33 -56 94 -36 38 -73 83 -82 101 -17 32 -16 35 4 78 12 24 38 58 58 74 49
41 95 40 153 -1z m-3874 -743 c1 -1 -25 -46 -58 -101 -124 -205 -214 -413
-275 -633 -185 -676 -85 -1380 281 -1977 l63 -104 -49 -32 c-28 -17 -52 -29
-55 -26 -24 24 -120 191 -185 322 -123 251 -209 538 -250 835 -20 143 -17 517
4 660 61 396 192 758 383 1052 l44 69 48 -32 c26 -18 48 -33 49 -33z m4370
-141 c148 -265 246 -561 300 -900 25 -156 25 -564 0 -725 -56 -361 -162 -676
-323 -959 -38 -67 -76 -131 -85 -142 l-16 -22 -47 32 c-25 18 -46 34 -46 38 0
3 22 42 49 87 161 268 271 560 326 866 81 450 50 861 -95 1285 -48 139 -154
364 -228 483 -29 46 -52 87 -52 92 0 4 21 21 47 38 l48 31 36 -57 c20 -31 59
-97 86 -147z m-3457 -3281 c0 -11 -33 -54 -42 -54 -5 0 -49 27 -98 60 -49 33
-91 60 -94 60 -6 0 -66 -86 -66 -94 0 -3 40 -33 90 -67 l89 -62 -16 -28 c-19
-32 -3 -38 -137 50 l-68 45 -22 -27 c-12 -15 -29 -39 -38 -55 l-17 -28 100
-68 100 -67 -21 -30 c-12 -16 -24 -29 -27 -29 -2 0 -65 41 -138 91 l-134 91
91 136 c50 76 111 165 135 199 l44 62 135 -89 c74 -50 134 -93 134 -96z m2595
140 c20 -31 25 -25 -92 -103 -51 -34 -93 -65 -93 -69 0 -4 14 -27 30 -52 17
-25 30 -38 30 -28 0 22 53 74 101 98 21 11 56 20 77 20 34 0 45 -6 81 -46 48
-51 80 -115 81 -158 0 -55 -136 -164 -228 -182 -26 -5 -37 0 -72 33 l-42 39
40 26 c39 27 40 27 58 7 24 -27 42 -24 102 16 35 24 52 42 52 57 0 29 -57 116
-82 124 -28 9 -109 -44 -128 -83 -13 -27 -55 -63 -74 -63 -3 0 -37 47 -76 104
l-69 105 137 90 c75 50 140 91 143 91 4 0 14 -12 24 -26z m-2452 -205 c111
-37 187 -94 187 -139 0 -26 -18 -90 -26 -90 -2 0 -19 8 -39 17 -28 14 -36 23
-34 43 2 46 -1 51 -53 75 -73 34 -104 33 -123 -5 -28 -55 -27 -56 118 -141 92
-54 102 -89 50 -191 -45 -92 -93 -98 -237 -29 -110 52 -130 75 -124 141 7 68
18 78 63 57 34 -16 35 -19 29 -57 l-7 -40 75 -35 c82 -39 101 -38 123 6 28 53
21 65 -71 116 -108 60 -138 93 -129 142 14 76 72 151 117 151 10 0 47 -9 81
-21z m2134 -76 c45 -77 104 -224 110 -274 4 -35 1 -55 -10 -73 -20 -31 -139
-91 -212 -107 -51 -11 -58 -11 -82 7 -54 41 -153 264 -153 345 0 51 28 80 117
121 130 59 187 54 230 -19z m-1719 -80 l174 -47 -6 -34 c-3 -19 -7 -37 -10
-40 -3 -2 -35 3 -72 12 -37 9 -68 16 -69 14 -2 -2 -25 -86 -53 -188 l-49 -185
-33 3 c-61 5 -61 2 -7 205 39 145 48 190 38 196 -7 5 -37 14 -68 20 -42 10
-53 16 -49 28 3 8 9 26 12 39 3 13 9 24 12 24 3 0 84 -21 180 -47z m1269 -35
c26 -28 46 -99 37 -132 -3 -13 -15 -32 -25 -42 -19 -17 -19 -18 13 -28 63 -21
92 -143 48 -199 -37 -46 -222 -91 -282 -68 -32 12 -57 47 -68 94 -7 34 -7 34
35 44 l43 10 16 -40 16 -40 54 6 c105 11 131 40 105 117 l-12 33 -63 -6 -63
-6 -6 30 c-4 17 -5 32 -3 34 1 1 26 9 53 17 l50 14 -1 43 c-1 64 -19 77 -91
63 -65 -13 -93 -38 -86 -75 6 -29 1 -33 -48 -42 l-36 -7 -6 42 c-3 23 -1 55 5
71 17 50 113 87 229 88 56 1 69 -2 86 -21z m-461 -53 c70 -29 85 -143 26 -196
l-29 -26 29 -11 c33 -12 48 -46 48 -108 0 -59 -22 -99 -62 -114 -49 -17 -177
-24 -224 -11 -54 15 -76 41 -84 101 l-6 50 48 0 c46 0 48 -1 48 -28 0 -42 17
-52 88 -52 86 0 102 10 102 63 0 63 -10 72 -75 71 -50 0 -56 2 -61 23 -11 40
2 53 50 53 27 0 51 6 60 16 23 22 20 70 -5 95 -19 19 -30 21 -80 16 -73 -6
-79 -10 -79 -53 0 -34 0 -34 -45 -34 l-45 0 0 44 c0 52 27 92 73 105 52 15
184 13 223 -4z"/>
<path d="M4772 6266 c-45 -52 -82 -97 -82 -99 0 -6 141 -60 145 -56 4 5 24
243 20 247 -1 1 -39 -40 -83 -92z"/>
<path d="M3538 5965 c-461 -63 -866 -256 -1197 -571 -350 -332 -572 -762 -647
-1249 -23 -154 -23 -442 0 -600 105 -709 542 -1309 1181 -1621 302 -147 592
-214 935 -214 572 0 1078 205 1489 605 252 245 428 523 535 845 224 674 110
1396 -310 1961 -351 471 -895 783 -1479 849 -123 13 -389 11 -507 -5z m-192
-408 c12 -83 23 -121 33 -126 9 -5 69 -17 134 -27 64 -10 117 -21 117 -24 0
-3 -53 -14 -117 -24 -65 -10 -125 -22 -134 -27 -10 -5 -21 -43 -33 -126 -11
-65 -22 -126 -25 -136 -4 -10 -17 43 -29 120 -12 75 -27 140 -32 143 -5 3 -65
14 -134 24 -69 11 -123 22 -121 26 2 3 58 15 124 25 66 10 125 21 130 24 6 4
20 66 32 140 12 73 26 127 29 119 4 -7 16 -66 26 -131z m1620 -228 c13 -63 15
-117 12 -238 -6 -165 -20 -251 -95 -546 -37 -151 -38 -170 -9 -320 20 -102 20
-278 1 -387 -49 -280 -210 -535 -455 -719 -60 -45 -66 -47 -78 -31 -28 36 -88
150 -120 227 l-33 80 6 -62 c18 -189 147 -401 331 -549 49 -39 163 -122 254
-185 159 -110 358 -287 389 -346 10 -20 4 -27 -86 -95 -54 -41 -127 -91 -162
-113 l-64 -39 -74 38 c-118 61 -302 188 -385 265 -167 156 -260 315 -335 571
-27 92 -53 149 -77 169 -12 10 -11 0 5 -59 12 -39 19 -74 17 -76 -10 -9 -164
-44 -197 -44 -55 0 -64 -10 -45 -48 8 -17 19 -45 24 -62 l9 -30 -52 0 c-29 0
-116 -3 -194 -7 l-143 -6 0 61 0 61 130 -1 c72 0 133 2 136 4 2 3 -45 13 -106
22 -250 38 -530 125 -667 207 -127 76 -260 224 -498 554 -89 123 -171 222
-262 315 -121 126 -132 140 -138 184 -9 61 -2 163 13 178 8 8 72 12 194 14
l183 3 82 -41 c46 -23 81 -44 78 -46 -2 -2 -36 12 -75 32 l-72 36 -164 -3
c-137 -3 -167 -7 -177 -20 -6 -9 -23 -20 -36 -25 -23 -8 -23 -9 23 -46 43 -36
46 -42 46 -85 0 -57 26 -102 77 -134 63 -40 273 -149 273 -142 0 9 -41 87 -61
116 l-19 26 75 5 c60 4 81 10 109 31 l34 27 60 -34 c139 -78 258 -172 329
-259 56 -67 103 -161 103 -204 0 -18 5 -33 10 -33 6 0 10 6 10 14 0 8 23 39
51 70 108 118 275 152 499 100 l25 -6 -28 26 c-47 44 -145 67 -292 70 -126 2
-132 3 -193 36 -34 18 -94 59 -132 92 -39 32 -101 84 -139 116 -37 31 -97 74
-132 95 -35 20 -60 37 -56 37 19 0 211 -103 397 -213 l205 -122 94 3 c97 3
175 -8 249 -34 37 -14 59 -14 157 -5 390 38 626 192 676 443 l11 56 -99 119
c-230 274 -503 623 -503 642 0 4 13 6 29 3 28 -4 48 18 36 39 -4 5 7 6 25 3
27 -6 31 -4 36 24 5 27 9 30 24 22 22 -12 54 14 46 36 -3 8 -3 14 -1 14 15 0
167 -103 210 -142 98 -90 218 -294 285 -485 l32 -91 29 11 c17 7 29 19 29 29
0 9 -11 86 -25 170 -34 210 -64 450 -72 583 -6 104 -5 109 11 92 27 -27 55
-21 70 14 11 26 14 28 26 15 21 -26 58 -19 79 15 14 23 20 26 24 15 10 -24 55
-31 76 -12 13 12 21 14 26 7 11 -18 33 -12 41 11 l7 23 8 -23 c5 -12 16 -59
25 -103z m-1451 -55 c55 -14 168 -48 251 -75 128 -42 153 -53 162 -75 13 -26
16 -54 7 -54 -3 0 -22 7 -42 15 -45 19 -46 19 -32 -6 9 -17 -12 -9 -102 39
-63 33 -170 88 -238 121 -68 34 -120 61 -114 61 5 0 54 -12 108 -26z m-360
-388 c57 -83 98 -87 170 -16 l51 50 39 -13 40 -14 10 -72 c9 -63 14 -75 41
-96 l31 -24 69 19 69 20 27 -32 c15 -18 28 -37 28 -41 0 -4 -14 -34 -30 -67
l-30 -60 19 -39 c18 -35 25 -39 80 -51 69 -14 76 -21 84 -72 5 -36 4 -38 -53
-75 -53 -34 -59 -41 -63 -78 -4 -37 0 -44 45 -91 l50 -51 -13 -41 c-13 -45
-26 -52 -106 -52 -48 0 -53 -2 -74 -36 -20 -33 -21 -42 -11 -78 6 -22 10 -42
8 -43 -1 -1 -40 5 -86 13 -56 10 -110 13 -157 9 -66 -6 -77 -4 -120 19 l-48
27 0 68 c0 55 -4 75 -21 97 -40 54 -70 69 -138 69 -53 0 -68 -4 -99 -28 l-36
-27 -143 68 c-79 38 -158 75 -176 82 l-34 13 25 21 c16 13 27 36 31 61 6 38 4
42 -45 86 l-52 45 15 45 15 44 72 5 c50 3 75 10 81 20 5 8 15 24 23 34 13 17
12 28 -5 89 -11 38 -18 69 -16 70 2 1 17 15 34 30 l32 28 62 -31 63 -32 38 18
c40 17 41 20 65 117 7 30 32 45 75 46 21 1 34 -10 64 -53z m1364 0 l88 -45 26
-163 c14 -89 24 -165 21 -167 -13 -13 -56 56 -93 149 -23 58 -63 143 -90 188
-27 45 -47 82 -45 82 2 0 44 -20 93 -44z m1151 -46 c0 -23 -274 -142 -507
-220 l-143 -48 77 -65 c109 -91 249 -237 322 -336 342 -464 368 -966 78 -1551
-68 -138 -76 -149 -180 -257 -99 -102 -137 -131 -137 -104 0 16 -158 177 -224
230 -33 26 -131 97 -216 156 -153 106 -268 195 -269 206 -1 3 38 37 87 76 48
39 118 103 156 141 l68 70 -25 56 c-14 30 -39 75 -56 99 -22 32 -27 47 -19 55
14 14 40 -19 89 -111 l36 -69 35 44 c94 114 167 261 194 387 39 185 -4 400
-116 583 -59 95 -65 189 -24 352 14 56 27 102 28 104 2 1 15 -7 30 -19 27 -22
28 -22 89 -4 124 37 365 127 487 184 120 55 140 61 140 41z m-25 -426 c5 -29
9 -32 58 -38 103 -14 107 -19 28 -32 -40 -7 -75 -15 -78 -18 -3 -2 -10 -37
-17 -77 -13 -79 -20 -75 -31 15 -8 65 -13 68 -103 81 -29 4 -51 9 -49 11 2 3
35 10 73 17 l69 13 7 50 c5 27 11 60 15 74 6 26 5 30 28 -96z m-1324 21 c-2
-5 -38 -18 -80 -27 -151 -33 -208 -64 -242 -131 -39 -75 -7 -175 98 -302 43
-53 51 -67 38 -71 -18 -7 -52 28 -111 115 -109 160 -94 298 38 367 82 43 270
78 259 49z m-2090 -1131 l10 -52 56 -7 c99 -12 105 -21 24 -33 -41 -6 -78 -16
-82 -23 -4 -7 -11 -39 -14 -71 -4 -32 -11 -56 -15 -53 -4 3 -11 32 -15 65 -4
33 -11 63 -16 66 -5 3 -42 11 -82 18 l-72 12 75 14 c41 7 78 18 82 23 3 6 9
35 13 66 8 64 19 88 23 51 2 -14 7 -48 13 -76z m524 -439 c37 -36 35 -97 -5
-137 -28 -27 -36 -30 -73 -25 -82 11 -114 93 -61 156 22 26 33 31 70 31 34 0
51 -6 69 -25z m1109 -186 c3 -17 6 -37 6 -44 0 -9 -46 -14 -177 -19 -98 -3
-226 -9 -285 -12 l-108 -7 0 47 0 46 48 1 c26 1 110 5 187 8 77 4 181 8 231 9
l92 2 6 -31z m-584 -31 l0 -33 -83 3 c-79 4 -85 2 -116 -24 -27 -23 -32 -33
-28 -58 5 -36 -7 -66 -28 -66 -37 0 -21 101 23 145 30 30 79 45 149 45 28 0
55 5 58 10 13 20 25 9 25 -22z m982 -214 c100 -130 290 -280 491 -389 l88 -47
-33 -21 c-18 -11 -80 -41 -138 -67 -282 -126 -541 -180 -857 -180 -322 0 -583
55 -873 185 -126 56 -239 122 -220 129 8 3 110 36 225 74 116 39 287 100 380
137 94 37 175 69 181 72 15 6 34 -123 34 -227 0 -44 3 -80 8 -80 4 1 33 36 65
79 65 89 149 243 168 310 9 29 22 49 39 58 14 8 90 49 170 92 l144 78 41 -72
c23 -39 62 -98 87 -131z m-460 121 c-13 -114 -77 -266 -174 -406 l-63 -93 -11
111 c-16 148 -28 200 -70 305 -20 49 -34 92 -30 95 5 5 299 22 336 19 11 -1
14 -10 12 -31z"/>
<path d="M2935 4678 c-78 -27 -127 -117 -106 -196 24 -86 84 -128 174 -120 94
8 147 67 147 166 0 63 -30 109 -90 140 -48 24 -78 26 -125 10z"/>
<path d="M3458 4468 c-47 -12 -105 -75 -114 -122 -22 -120 88 -228 200 -196
76 21 126 84 126 158 0 72 -53 143 -121 162 -39 11 -41 11 -91 -2z"/>
<path d="M3578 2686 l-258 -9 0 -30 0 -30 193 7 c105 3 225 9 265 12 67 6 72
8 72 30 0 12 -3 24 -7 26 -5 2 -124 -1 -265 -6z"/>
<path d="M4756 1640 c-58 -23 -86 -46 -86 -72 0 -23 64 -180 92 -225 24 -40
45 -41 113 -9 75 34 81 45 60 108 -23 72 -72 178 -92 200 -20 22 -26 22 -87
-2z"/>
<path d="M1186 2213 c-152 -242 -238 -363 -258 -367 -13 -3 -102 -10 -198 -17
-96 -6 -192 -14 -214 -18 l-38 -6 72 -110 c77 -116 239 -334 266 -356 14 -11
15 -7 13 45 -2 44 1 61 13 70 9 7 163 97 342 201 179 105 326 192 326 195 0 3
-33 46 -74 97 -40 50 -105 139 -145 197 -40 58 -74 106 -76 106 -3 0 -15 -17
-29 -37z"/>
<path d="M6331 2148 c-38 -57 -101 -141 -138 -187 -86 -106 -88 -109 -83 -114
3 -2 147 -86 320 -187 173 -101 326 -191 339 -200 22 -16 24 -24 22 -74 -1
-31 0 -56 3 -56 20 0 355 464 343 476 -2 2 -106 13 -231 23 -163 13 -231 22
-240 32 -7 8 -66 96 -131 197 -65 100 -121 185 -126 187 -4 3 -39 -41 -78 -97z"/>
<path d="M6017 1757 c-64 -75 -257 -246 -392 -347 -724 -543 -1656 -735 -2532
-520 -541 132 -1003 390 -1416 789 -105 102 -131 123 -145 115 -9 -6 -155 -91
-324 -189 l-307 -179 42 -50 c78 -94 271 -288 382 -384 621 -535 1342 -842
2159 -918 185 -17 571 -14 736 6 410 50 761 145 1130 307 273 120 579 306 828
505 124 100 447 412 510 494 l31 41 -297 173 c-163 96 -311 182 -328 192 l-31
18 -46 -53z m-4336 -275 l31 -28 -111 -134 c-109 -132 -129 -165 -118 -194 10
-25 108 -96 132 -96 25 0 59 35 179 183 44 53 84 97 90 97 6 0 24 -12 40 -26
l28 -25 -63 -77 c-179 -218 -196 -236 -242 -247 -39 -10 -110 30 -188 105 -79
76 -90 105 -63 161 20 40 233 308 246 309 4 0 22 -13 39 -28z m4453 -168 l146
-187 -38 -28 c-20 -15 -37 -27 -38 -26 0 1 -41 54 -91 117 -49 63 -102 133
-117 155 -16 22 -26 31 -23 20 3 -11 31 -101 61 -200 31 -99 56 -181 56 -182
0 -1 -15 -14 -34 -28 l-33 -25 -139 81 c-76 44 -158 95 -182 111 -44 31 -44
30 34 -68 127 -158 164 -206 164 -214 0 -4 -15 -19 -33 -33 l-33 -25 -148 189
-147 190 23 19 c13 11 40 31 60 46 l37 26 128 -77 c70 -42 138 -86 152 -96 33
-26 42 -24 29 9 -6 15 -32 94 -58 177 l-48 149 55 43 c31 24 59 43 64 43 4 0
73 -84 153 -186z m-3998 -170 c163 -102 159 -97 122 -148 -14 -17 -17 -17 -71
18 -31 20 -58 36 -61 36 -2 0 -51 -74 -108 -165 -57 -91 -105 -165 -108 -165
-3 0 -20 9 -38 20 -24 15 -32 26 -28 37 4 9 49 84 101 168 52 83 95 154 95
157 0 3 -19 18 -42 32 -74 44 -71 39 -51 74 10 18 22 32 27 32 4 0 77 -43 162
-96z m3442 -179 c64 -118 86 -170 90 -207 4 -45 2 -50 -32 -83 -45 -42 -169
-105 -223 -112 -34 -4 -45 -1 -71 23 -27 25 -202 333 -202 355 0 5 17 17 37
28 l38 19 25 -47 c15 -25 55 -99 90 -164 45 -84 69 -119 85 -123 38 -9 165 63
165 94 0 9 -38 89 -85 177 -47 88 -85 163 -85 166 0 8 63 38 74 35 5 -1 48
-73 94 -161z m-2821 -128 c5 -6 -21 -67 -30 -67 -5 0 -52 18 -104 40 -53 22
-98 39 -99 37 -2 -2 -14 -28 -28 -59 l-25 -55 95 -39 c53 -21 97 -41 100 -45
3 -6 -11 -49 -22 -67 -1 -2 -42 13 -90 33 -49 21 -94 39 -100 42 -6 2 -28 -37
-48 -87 -21 -49 -39 -90 -41 -90 -14 0 -75 33 -75 41 0 10 153 387 171 421 8
14 25 9 151 -43 78 -32 143 -60 145 -62z m2378 -188 l7 -217 -58 -21 c-31 -12
-63 -21 -70 -19 -14 4 -304 372 -304 387 0 14 79 37 89 25 10 -11 198 -249
229 -289 l22 -30 -5 80 c-2 44 -7 139 -10 210 l-6 130 43 15 43 15 6 -35 c4
-19 10 -132 14 -251z m-2133 120 c34 -9 38 -13 38 -42 0 -18 7 -131 14 -252 8
-121 13 -221 12 -222 -2 -3 -79 19 -86 24 -2 2 -7 25 -10 51 l-5 47 -95 26
-95 27 -15 -21 c-43 -60 -43 -60 -89 -47 -29 8 -41 16 -37 25 2 7 64 102 136
210 147 221 124 203 232 174z m1683 -39 c30 -29 69 -145 84 -253 19 -136 -5
-169 -154 -207 -139 -36 -193 -25 -233 47 -28 51 -61 199 -62 274 0 89 38 121
185 155 83 19 149 13 180 -16z m-1244 -40 c110 -21 139 -48 139 -135 0 -49 -5
-52 -68 -39 -22 5 -28 10 -25 24 8 30 -15 58 -55 70 -51 14 -127 13 -140 -2
-18 -23 -32 -91 -38 -189 -8 -113 -8 -113 98 -130 72 -12 102 2 113 51 7 31 8
31 48 25 23 -4 43 -8 45 -10 7 -7 -19 -91 -35 -114 -25 -33 -64 -43 -143 -36
-93 9 -168 32 -197 62 -26 25 -26 26 -20 152 8 175 35 251 97 274 25 9 124 8
181 -3z m813 -47 c12 -99 28 -424 21 -431 -3 -4 -39 -8 -78 -10 l-72 -4 -97
164 c-53 90 -103 177 -112 193 l-17 30 5 -50 c3 -27 8 -93 11 -145 3 -52 8
-121 11 -152 l6 -58 -45 0 c-35 0 -47 4 -51 17 -6 25 -30 452 -25 457 2 2 36
6 76 10 l72 7 94 -158 c52 -87 102 -173 111 -191 10 -19 19 -32 20 -30 2 1 -3
80 -10 173 -7 94 -13 180 -13 192 -1 22 13 30 61 32 24 1 27 -3 32 -46z"/>
<path d="M2877 590 c-44 -66 -63 -102 -55 -105 40 -13 123 -35 134 -35 9 0 10
29 7 113 -3 61 -9 116 -12 120 -4 4 -38 -38 -74 -93z"/>
<path d="M4524 670 c-22 -5 -58 -16 -79 -24 l-38 -16 7 -64 c3 -35 16 -99 29
-142 27 -97 42 -106 143 -81 37 9 73 22 80 28 20 16 17 78 -7 181 -29 124 -43
136 -135 118z"/>
</g>
</svg>
